<svg width="34" height="24" viewBox="0 0 34 24" fill="none" xmlns="http://www.w3.org/2000/svg">
<g id="payment/sm/Etherium">
<rect x="0.5" y="0.5" width="33" height="23" rx="3.5" fill="white"/>
<rect x="0.5" y="0.5" width="33" height="23" rx="3.5" stroke="#E6E6E6"/>
<g id="Etherium">
<ellipse id="Ellipse 1" cx="16.935" cy="11.935" rx="7.935" ry="7.93499" fill="#6481E7"/>
<path id="Vector" fill-rule="evenodd" clip-rule="evenodd" d="M13.4688 12.2578L17.0281 14.362V6.35181L13.4688 12.2578Z" fill="white"/>
<path id="Vector_2" fill-rule="evenodd" clip-rule="evenodd" d="M17.0273 6.35181V14.362L20.5867 12.2578L17.0273 6.35181Z" fill="#C1CCF5"/>
<path id="Vector_3" fill-rule="evenodd" clip-rule="evenodd" d="M17.0283 10.6401L13.4688 12.2577L17.0281 14.3619L20.5877 12.258L17.0283 10.6401Z" fill="#8299EC"/>
<path id="Vector_4" fill-rule="evenodd" clip-rule="evenodd" d="M17.0283 10.6401L13.4688 12.2577L17.0281 14.3619L17.0283 10.6401Z" fill="#C1CCF5"/>
<path id="Vector_5" fill-rule="evenodd" clip-rule="evenodd" d="M13.4688 12.9329L17.0281 17.9489V15.0359L13.4688 12.9329Z" fill="white"/>
<path id="Vector_6" fill-rule="evenodd" clip-rule="evenodd" d="M17.0273 15.0359V17.9491L20.589 12.9329L17.0273 15.0359Z" fill="#C1CCF5"/>
</g>
</g>
</svg>
