<svg width="24" height="24" viewBox="0 0 24 24" fill="none" xmlns="http://www.w3.org/2000/svg">
<!-- Twemoji 17.0.3 asset 1f4d2.svg (https://github.com/jdecked/twemoji), copyright Twitter and other contributors, CC BY 4.0 (https://creativecommons.org/licenses/by/4.0/); exported from Figma node 691:24250. -->
<g id="Feature Icons and Logos">
<g id="Content">
<g id="Misc Icons / Emoji Icon">
<g id="Misc Icons / Emoji Icon content">
<g id="Misc Icons / Emoji Icon grid">
<g id="Misc Icons / Emoji Icon grid_2">
<g id="Component Group / Misc Icons / Emoji Icon">
<g id="emoji-icon/lg">
<g id="&#240;&#159;&#147;&#146;" clip-path="url(#clip0_381_25439)">
<path id="Vector" d="M23.9993 17.3333C23.9993 18.806 22.8053 20 21.3327 20H5.33268C3.86002 20 2.66602 18.806 2.66602 17.3333V4.20867C2.66602 2.736 6.52668 0 7.99935 0H20.416C22.4787 0 23.9993 1.54133 23.9993 3.58333V17.3333Z" fill="#F4900C"/>
<path id="Vector_2" d="M22.6667 19.9999C22.6667 21.4726 21.4727 22.6666 20 22.6666H6.66667C5.194 22.6666 4 21.4726 4 19.9999V3.99991C4 1.25391 3.986 1.33324 7.33333 1.33324H20C21.4727 1.33324 22.6667 2.52724 22.6667 3.99991V19.9999Z" fill="#CCD6DD"/>
<path id="Vector_3" d="M21.3327 20.6665C21.3327 21.7712 20.4373 22.6665 19.3327 22.6665H4.66602C3.56135 22.6665 2.66602 21.7712 2.66602 20.6665V4.6665C2.66602 3.56184 3.56135 2.6665 4.66602 2.6665H19.3327C20.4373 2.6665 21.3327 3.56184 21.3327 4.6665V20.6665Z" fill="#E1E8ED"/>
<path id="Vector_4" d="M21.334 21.3333C21.334 22.806 20.14 24 18.6673 24H6.00065C4.52798 24 3.33398 22.806 3.33398 21.3333V6.66667C3.33398 5.194 4.52798 4 6.00065 4H18.6673C20.14 4 21.334 5.194 21.334 6.66667V21.3333Z" fill="#FFAC33"/>
<path id="Vector_5" d="M20.0007 21.3335C20.0007 22.8062 18.8067 24.0002 17.334 24.0002H6.00065C4.52798 24.0002 3.33398 22.8062 3.33398 21.3335V8.00016C3.33398 6.5275 4.52798 5.3335 6.00065 5.3335H17.5573C19.03 5.3335 20.0007 6.30416 20.0007 7.77683V21.3335Z" fill="#FFCC4D"/>
<path id="Vector_6" d="M5.99935 4C4.87402 4 4.84535 2.71867 5.33268 2.16667C5.88735 1.53933 6.74935 1.33333 8.29135 1.33333H9.33268V0H7.52002C4.87402 0 2.66602 1.66667 2.66602 3.58333V21.3333C2.66602 22.806 3.86002 24 5.33268 24H6.66602V4H5.99935Z" fill="#F4900C"/>
<path id="Vector_7" d="M5.69498 21.986C5.69498 22.454 5.25032 22.8333 4.70165 22.8333C4.15365 22.8333 3.70898 22.454 3.70898 21.986C3.70898 21.5187 4.15365 21.1387 4.70165 21.1387C5.25032 21.1387 5.69498 21.518 5.69498 21.986Z" fill="#662113"/>
<path id="Vector_8" d="M4.59535 21.5139C4.27535 21.5506 4.06735 21.7639 3.91735 21.9999C3.71269 22.3233 3.24602 22.6666 2.66602 22.6666C1.93002 22.6666 1.33269 22.2193 1.33269 21.6666C1.33269 21.1139 1.93002 20.6666 2.66602 20.6666V19.3359C1.22135 19.3499 0.0546875 20.3859 0.0546875 21.6666C0.0546875 22.9559 1.23602 23.9999 2.69335 23.9999C3.92935 23.9999 4.92469 23.3033 5.29402 22.2873C5.47869 21.7813 4.98135 21.4713 4.59535 21.5139Z" fill="#66757F"/>
<path id="Vector_9" d="M5.69498 16.6525C5.69498 17.1205 5.25032 17.4998 4.70165 17.4998C4.15365 17.4998 3.70898 17.1205 3.70898 16.6525C3.70898 16.1852 4.15365 15.8052 4.70165 15.8052C5.25032 15.8052 5.69498 16.1845 5.69498 16.6525Z" fill="#662113"/>
<path id="Vector_10" d="M4.59535 16.1804C4.27535 16.2171 4.06735 16.4304 3.91735 16.6664C3.71269 16.9898 3.24602 17.3331 2.66602 17.3331C1.93002 17.3331 1.33269 16.8858 1.33269 16.3331C1.33269 15.7804 1.93002 15.3331 2.66602 15.3331V14.0024C1.22135 14.0164 0.0546875 15.0524 0.0546875 16.3331C0.0546875 17.6224 1.23602 18.6664 2.69335 18.6664C3.92935 18.6664 4.92469 17.9698 5.29402 16.9538C5.47869 16.4478 4.98135 16.1378 4.59535 16.1804Z" fill="#66757F"/>
<path id="Vector_11" d="M5.69498 11.3195C5.69498 11.7875 5.25032 12.1668 4.70165 12.1668C4.15365 12.1668 3.70898 11.7875 3.70898 11.3195C3.70898 10.8522 4.15365 10.4722 4.70165 10.4722C5.25032 10.4722 5.69498 10.8515 5.69498 11.3195Z" fill="#662113"/>
<path id="Vector_12" d="M4.59535 10.8474C4.27535 10.8841 4.06735 11.0974 3.91735 11.3334C3.71269 11.6568 3.24602 12.0001 2.66602 12.0001C1.93002 12.0001 1.33269 11.5528 1.33269 11.0001C1.33269 10.4474 1.93002 10.0001 2.66602 10.0001V8.66943C1.22135 8.68343 0.0546875 9.71943 0.0546875 11.0001C0.0546875 12.2894 1.23602 13.3334 2.69335 13.3334C3.92935 13.3334 4.92469 12.6368 5.29402 11.6208C5.47869 11.1148 4.98135 10.8048 4.59535 10.8474Z" fill="#66757F"/>
<path id="Vector_13" d="M5.69498 5.98601C5.69498 6.45401 5.25032 6.83334 4.70165 6.83334C4.15365 6.83334 3.70898 6.45401 3.70898 5.98601C3.70898 5.51867 4.15365 5.13867 4.70165 5.13867C5.25032 5.13867 5.69498 5.51801 5.69498 5.98601Z" fill="#662113"/>
<path id="Vector_14" d="M4.59535 5.51394C4.27535 5.5506 4.06735 5.76394 3.91735 5.99994C3.71269 6.32327 3.24602 6.6666 2.66602 6.6666C1.93002 6.6666 1.33269 6.21927 1.33269 5.6666C1.33269 5.11394 1.93002 4.6666 2.66602 4.6666V3.33594C1.22202 3.34927 0.0546875 4.38594 0.0546875 5.6666C0.0546875 6.95594 1.23602 7.99994 2.69335 7.99994C3.92935 7.99994 4.92469 7.30327 5.29402 6.28727C5.47869 5.78127 4.98135 5.47127 4.59535 5.51394Z" fill="#66757F"/>
</g>
</g>
</g>
</g>
</g>
</g>
</g>
</g>
</g>
<defs>
<clipPath id="clip0_381_25439">
<rect width="24" height="24" fill="white"/>
</clipPath>
</defs>
</svg>
