<svg width="24" height="24" viewBox="0 0 24 24" fill="none" xmlns="http://www.w3.org/2000/svg">
<g id="flag-round/malawi" clip-path="url(#clip0_691_17461)">
<path id="Vector" d="M0 12C0 13.4678 0.264047 14.8739 0.746391 16.1739L12 16.6956L23.2536 16.1739C23.736 14.8739 24 13.4678 24 12C24 10.5321 23.736 9.12607 23.2536 7.82609L12 7.30432L0.746391 7.82604C0.264047 9.12607 0 10.5321 0 12H0Z" fill="#D80027"/>
<path id="Vector_2" d="M11.9997 0C6.84013 0 2.44161 3.2565 0.746094 7.82611H23.2534C21.5578 3.2565 17.1593 0 11.9997 0Z" fill="black"/>
<path id="Vector_3" d="M23.2533 16.174H0.746094C2.44161 20.7435 6.84012 24.0001 11.9997 24.0001C17.1593 24.0001 21.5578 20.7435 23.2533 16.174Z" fill="#496E2D"/>
<path id="Vector_4" d="M15.5873 5.73909L14.1218 5.04974L14.9023 3.63041L13.3109 3.93487L13.1092 2.32715L12.0007 3.50957L10.8922 2.32715L10.6905 3.93487L9.09919 3.63041L9.87961 5.04974L8.41406 5.73909H15.5873Z" fill="#D80027"/>
</g>
<defs>
<clipPath id="clip0_691_17461">
<rect width="24" height="24" fill="white"/>
</clipPath>
</defs>
</svg>
